<svg width="1448" height="994" viewBox="0 0 1448 994" fill="none" xmlns="http://www.w3.org/2000/svg">
<path d="M161.229 31.3495C161.007 21.9483 144.572 2.11876 134.615 1L2.13483 2.01109C2.13483 2.01109 -0.724561 362.231 2.63434 371.572C6.90154 383.438 9.92113 396.68 16.3289 407.284C25.5328 422.514 45.8753 413.275 46.3864 436.533C46.9361 461.549 37.9014 498.573 65.5268 511.806C78.4393 517.991 87.7565 537.558 101.681 540.911C128.494 547.367 146.522 554.156 163.497 577.902C171.156 588.616 179.093 595.028 179.093 608.728V634.393C179.093 646.235 176.532 662.53 179.518 674.108C181.565 682.041 194.268 681.828 200.36 684.575C209.362 688.633 217.176 695.013 226.164 699.199C234.125 702.907 245.042 704.215 253.67 704.074C263.632 703.912 272.128 698.912 282.309 698.912H316.337C328.922 698.912 342.835 697.256 355.327 699.199C366.499 700.937 376.843 710.238 386.66 715.401C411.25 728.331 432.792 747.477 456.274 762.428C482.998 779.444 505.592 803.822 536.664 813.901C556.796 820.431 585.782 815.048 606.987 815.048C635.429 815.048 664.068 813.456 692.056 808.739C723.404 803.456 754.596 793.576 786.482 791.964C805.04 791.026 823.963 791.403 842.574 791.774L844.895 791.821C863.63 792.192 868.603 798.062 879.773 811.893C886.528 820.257 891.276 846.399 884.878 856.914C870.626 880.333 902.642 888.161 918.621 899.497L919.773 900.314C952.789 923.739 981.468 944.087 1022.55 944.087C1036.29 944.087 1045.95 940.837 1058.98 937.492C1073.27 933.826 1090.21 936.345 1104.92 936.345C1125.24 936.345 1146.14 932.9 1161.63 949.249C1175.71 964.105 1176.27 980.812 1197.36 989.107C1217.26 996.932 1248.67 990.541 1270.1 990.541C1279.02 990.541 1295.18 993.827 1302.56 987.387C1308.32 982.369 1318.32 980.115 1322.41 973.91C1332.85 958.082 1360.12 952.191 1376.57 944.947C1403.38 933.143 1424.91 914.615 1446.02 895.052C1446.02 895.052 1447 583.31 1447 568.583C1437.12 560.991 1411.52 561.505 1402.94 552.381C1394.8 543.711 1381.57 546.795 1371.47 542.345C1353.66 534.502 1336.44 499.477 1317.94 513.127C1237.31 537.207 1254.95 500.993 1240.45 490.377C1146.47 440.833 1234.45 423.644 1156.53 380.902C1149.58 371.831 1138.7 365.527 1134.98 354.234C1132.05 345.362 1132.95 338.147 1124.49 332.441C1110.26 322.853 1095.67 308.923 1078.83 304.483C1066.07 301.116 1054.89 311.398 1042.54 311.795C1027.07 312.291 1011.51 311.795 996.034 311.795C970.403 311.795 944.492 310.685 918.905 312.368C908.033 313.083 891.195 311.33 880.908 314.949C866.117 320.152 841.867 319.537 825.897 319.537H788.75C779.402 319.537 769.219 317.965 759.902 316.526L758.976 316.383C751.22 315.186 744.633 309.439 736.858 309.214C720.572 308.743 711.119 299.65 696.309 293.729C666.589 281.847 630.332 299.243 600.182 285.987C580.16 277.184 559.185 278.949 540.35 267.921C526.731 259.948 522 244.957 512.561 232.937C503.365 221.226 478.242 226.629 464.923 226.629H415.442C403.745 226.629 389.409 228.918 378.153 225.482C371.131 223.338 365.026 220.361 357.737 218.886C346.384 216.59 347.529 186.835 347.529 179.028C347.529 170.101 349.38 161.364 343.133 154.224C331.109 140.477 305.504 134.459 288.264 131.427C275.767 129.229 261.582 131.14 248.849 131.14C231.675 131.14 207.523 131.652 195.54 116.229C188.997 107.807 184.387 100.005 175.974 93.2884C167.356 86.4085 164.583 75.0139 159.612 66.2165C154.429 57.0446 161.477 41.9033 161.229 31.3495Z" fill="#CCCBCB" stroke="#EFF6F9" stroke-opacity="0.7" stroke-linecap="round"/>
</svg>
