<svg width="1442" height="309" viewBox="0 0 1442 309" fill="none" xmlns="http://www.w3.org/2000/svg">
<path d="M1.52583 212.211L0 2C0 2 1429.4 0.5 1442 0.5L1441.56 307.953C1425.36 307.953 1425.31 310.006 1409.44 307.096C1390.55 303.633 1375.64 299.531 1356.22 299.531C1339.27 299.531 1323.14 304.682 1306.01 305.068C1285.01 305.541 1261.59 307.418 1242.13 299.531C1224.48 292.375 1212.44 281.054 1197.21 270.912C1183.98 262.109 1171.99 265.081 1155.93 264.284C1117.72 262.388 1085.17 249.682 1051.38 236.493L1050.86 236.288C1024.32 225.929 1000.28 223.733 971.58 223.733C946.507 223.733 923.969 229.725 899.499 232.779C875.611 235.76 849.962 233.559 825.87 233.559C820.519 233.559 813.08 234.672 807.918 233.247C803.466 232.018 799.41 229.282 794.796 227.944C786.772 225.618 780.916 219.695 774.475 215.233C765.952 209.329 756.464 204.371 745.953 201.587C729.769 197.3 710.42 199.871 693.647 199.871C661.146 199.871 629.007 203.3 596.325 202.678C587.444 202.509 576.701 196.621 568.987 193.321C545.361 183.211 527.987 178.816 501.372 178.816C483.15 178.816 464.715 178.13 446.514 178.972C429.563 179.756 413.445 184.218 396.395 184.431C382.47 184.605 368.801 184.057 355.389 180.843C339.856 177.122 324.319 177.412 308.368 177.412C284.571 177.412 257.48 174.854 234.283 180.22C201.217 187.867 165.754 194.203 131.676 195.738C104.37 196.968 76.1356 199.002 49.0247 201.976C40.8394 202.874 32.5954 203.436 24.4208 204.394C18.206 205.122 1.52583 212.211 1.52583 212.211Z" fill="#CCCBCB"/>
</svg>
