<svg width="1441" height="585" viewBox="0 0 1441 585" fill="none" xmlns="http://www.w3.org/2000/svg">
<path d="M1399.96 321.496C1418.86 314.27 1441.01 309 1441.01 309L1441.01 0C1417.09 8.12292 1355.64 22.041 1331.5 30.0878C1315.23 35.5104 1296.55 34.5992 1279.51 33.7679L1279.44 33.7644C1271.75 33.3891 1270.2 25.1514 1263.26 24.5729C1228.74 21.6956 1194.87 26.9162 1162.01 37.0734C1139.62 43.9922 1118.72 54.1413 1096.71 62.0007C1078.22 68.6068 1058.65 72.6317 1040.61 80.3838C1025.03 87.0739 1008.53 85.384 991.928 85.384H936.338C920.073 85.384 904.921 83.3893 890.086 75.9719C877.621 69.7391 869.292 68.1774 855.6 68.1774C814.941 68.1774 783.506 113.27 783.506 113.27C783.506 113.27 767.506 140.347 714.582 146.828C707.41 147.706 689.435 139.73 682.506 141.27C666.78 144.765 664.441 163.875 649.506 169.77C632.886 176.33 635.705 154.272 618.506 158.77C604.733 162.372 562.477 143.178 548.302 143.299C531.301 143.444 515.099 147.27 498.006 147.27C483.005 147.27 476.506 132.003 460.006 140.27C443.006 145.607 430.461 158.637 425.506 158.27C417.134 157.65 418.81 146.714 410.506 145.607C397.66 143.894 384.006 143.5 400.006 129C412.076 112.468 346.703 126.119 332.198 132.003C318.578 137.529 304.847 139.147 291.535 145.607C261.096 160.379 218.772 194.27 184.506 194.27C148.132 194.27 93.0059 147.27 93.0059 147.27C43.0059 112 53.8297 170.326 38.2903 174.946C32.5348 176.657 27.5542 180.251 21.672 181.932C12.5027 184.552 7.31799 186.983 0.506104 194.27L0.506104 580.403H36.4519C52.4128 580.403 69.6921 582.36 85.2773 578.05C105.74 572.39 123.189 560.549 144.912 560.549C162.137 560.549 179.212 561.873 196.458 561.873C201.943 561.873 204.453 560.564 209.105 557.755C212.469 555.724 217.661 556.047 221.459 555.549C229.5 554.494 237.994 555.255 246.092 555.255C251.104 555.255 256.327 554.848 261.313 555.402C266.188 555.943 270.421 558.555 275.284 559.225C280.93 560.004 288.729 560.399 293.079 564.52C297.649 568.849 300.53 573.231 306.609 575.402C311.331 577.089 316.231 579.275 321.021 581.138C335.858 586.908 351.908 583.627 367.2 583.05C372.891 582.835 378.255 579.522 383.818 578.05C394.755 575.155 403.797 572.461 415.437 572.461H474.336C483.271 572.461 490.224 564.757 499.484 563.123C507.566 561.696 513.665 556.055 522.058 554.96C531.498 553.729 538.016 549.96 547.794 549.96L575.148 549.96C584.832 549.96 594.805 547.119 603.385 542.681C615.136 536.602 627.987 532.604 639.709 526.209C648.393 521.473 657.664 518.086 666.769 514.444C672.68 512.08 683.66 514.224 689.858 514.224C715.894 514.224 743.782 517.048 769.494 512.312C787.634 508.97 803.618 500.497 820.893 494.664C833.524 490.399 845.822 490.399 859.009 490.399H859.276C869.348 490.399 881.708 488.424 891.484 490.987C899.083 492.981 909.63 496.061 914.867 502.311C918.384 506.51 921.752 512.495 926.632 515.033C935.413 519.599 944.068 524.345 952.956 528.636C958.735 531.426 966.822 530.107 973.104 530.107C985.768 530.107 999.87 530.594 999.87 514.959C999.87 502.195 992.952 490.438 981.781 483.487C973.392 478.267 960.874 473.779 957.81 463.192C956.738 459.491 941.006 429.5 978.506 431H992.506L996.006 433.5L1016.01 441C1016.01 441 1041.01 448 1047.01 461C1050.01 469 1051.48 500.341 1064.43 500.988C1069.64 501.248 1075.09 501.189 1080.31 500.988C1087.13 500.726 1093.51 491.252 1101.12 489.811C1114.45 487.29 1130.04 488.619 1143.55 489.149C1154.24 489.569 1163.33 488.557 1168.85 497.9C1172.51 504.098 1178.52 511.576 1186.05 511.576C1190.66 511.576 1195.67 512.766 1198.41 508.341C1200.71 504.61 1204.81 503.538 1207.97 500.694C1213.42 495.784 1219.75 492.43 1225.47 487.899C1234.38 480.831 1241.48 473.157 1248.11 464.075C1254.41 455.462 1261.51 449.368 1272.38 449.368C1275.79 449.368 1280.89 448.346 1282.82 452.015C1285.6 457.302 1291.06 457.742 1294.44 462.31C1297.03 465.806 1297.53 471.219 1299 475.252C1301.16 481.201 1307.81 481.991 1308.34 488.634C1309.05 497.554 1313.92 495.694 1321.28 495.694C1326.41 495.694 1332.71 495.381 1337.53 493.488C1342.61 491.492 1346.74 487.746 1351.94 485.84C1356.47 484.18 1360.63 483.02 1364.59 480.105C1370.91 475.447 1375.1 474.298 1372.53 465.545C1371.12 460.738 1369.05 456.342 1365.18 453.854C1359.89 450.457 1355.81 442.705 1351.8 437.971C1346.46 431.682 1345.32 429.52 1345.32 421.573C1345.32 418.795 1347.18 417.61 1348.41 415.249C1350.12 411.971 1349.3 407.364 1349.3 403.778V389.145C1349.3 374.803 1345.65 354.648 1356.94 343.776C1369.02 332.15 1384.75 327.31 1399.96 321.496Z" fill="#CCCBCB"/>
</svg>
