<svg width="1449" height="672" viewBox="0 0 1449 672" fill="none" xmlns="http://www.w3.org/2000/svg">
<path d="M12.3894 0.966362C8.06858 1.60374 4.74303 2.42337 1.28131 5.20913C4.92387 10.672 -1.89796 242.404 1.28131 248.17C7.91474 260.2 11.8013 271.541 21.7501 281.488C30.3497 290.086 42.2837 292.809 50.082 302.452C55.6987 309.398 62.4668 319.025 63.5615 328.034C64.4294 335.176 63.9096 342.809 63.8111 349.996C63.6691 360.357 54.7361 368.005 56.0729 378.697C57.1195 387.069 60.3528 394.284 60.4412 403.031C60.5205 410.874 60.4351 418.559 61.3149 426.366C63.5003 445.758 82.8252 454.266 98.9451 462.554C111.619 469.071 127.257 473.68 138.759 482.084C142.051 484.488 148.387 491.167 146.685 496.06C145.513 499.43 142.351 502.038 140.819 505.356C138.266 510.887 135.084 515.892 131.708 520.955C126.812 528.297 119.417 535.153 116.356 543.541C111.456 556.97 118.754 572.579 126.403 583.723C130.528 589.733 138.633 602.563 146.934 603.19C152.436 603.605 158.376 602.258 163.409 600.195C176.63 594.776 200.018 593.747 213.084 601.131C224.137 607.377 224.135 621.668 236.298 625.651C247.866 629.44 258.894 629.021 270.933 629.021C281.552 629.021 293.073 623.136 300.076 615.419C303.956 611.144 308.09 607.13 312.308 603.19C318.033 597.84 318.763 591.419 321.044 584.347C322.585 579.573 327.651 574.238 330.592 570.059C333.429 566.028 336.745 562.358 339.516 558.329C345.123 550.174 350.798 542.445 355.741 533.933C359.035 528.261 363.383 524.172 367.598 519.395C370.062 516.603 371.273 511.734 375.586 511.159C381.535 510.366 388.379 511.097 394.37 511.097H410.658C415.175 511.097 427.725 509.221 431.002 512.906C433.183 515.36 433.223 517.899 436.119 520.331C439.24 522.952 442.202 524.895 442.36 529.316C442.544 534.474 440.716 541.65 436.743 545.413C434.735 547.315 432.478 546.306 430.565 549.282C429.239 551.345 427.97 552.027 426.009 553.275C421.117 556.388 418.771 562.785 418.771 568.374C418.771 585.328 422.618 609.707 412.156 623.405C407.624 629.338 406.829 636.632 408.099 643.746C409.118 649.45 409.651 657.893 415.65 660.841C418.455 662.22 422.718 661.59 425.76 661.59C436.115 661.59 444.672 659.312 453.592 653.604C469.075 643.697 479.854 625.524 497.463 619.038C503.994 616.632 512.119 617.79 518.993 617.79H540.71C549.164 617.79 559.194 614.191 567.357 611.55C575.648 608.868 585.565 603.562 594.253 603.19C598.844 602.993 608.113 601.339 612.226 603.689C619.457 607.82 627.958 606.735 636.189 606.559C645.976 606.349 655.433 603.244 665.145 602.067C669.817 601.5 675.534 601.372 679.935 599.696C685.279 597.66 702.65 583.734 706.832 589.588C711.255 595.779 709.702 604.491 709.702 611.738C709.702 620.47 709.184 629.356 709.765 638.068C710.947 655.798 734.208 650.475 745.772 648.113C753.18 646.6 757.427 642.58 763.308 638.442C770.531 633.36 776.269 629.895 781.468 622.469C788.524 612.391 801.17 600.626 812.546 596.077C823.856 591.553 834.025 595.516 845.121 596.701C857.54 598.027 865.58 604.576 875.388 611.114C879.034 613.544 882.583 621.571 888.305 616.667C891.61 613.835 895.212 613.278 898.914 611.55C904.21 609.079 906.945 605.843 913.33 605.498C925.3 604.851 927.62 612.616 927.62 623.28C927.62 628.098 928.142 630.933 923.627 633.513C920.96 635.037 917.874 638.193 916.637 641C912.469 650.458 911.439 665.265 925.811 663.712C937.353 662.464 940.02 654.966 937.98 644.993C936.216 636.373 933.494 630.144 945.344 630.144C956.526 630.144 968.316 628.973 979.417 630.206C986.604 631.005 980.165 639.802 978.917 643.995C977.139 649.969 977.579 658.468 979.292 664.46C982.092 674.26 995.443 671.698 1003.19 671.698C1018 671.698 1033.06 672.486 1047.81 671.012C1060.2 669.773 1073.22 667.619 1085.26 664.398C1094.56 661.91 1102.55 657.407 1111.34 653.666C1131.26 645.193 1151.21 645.867 1172.5 645.867C1192.6 645.867 1212.56 644.508 1232.09 649.798C1244.8 653.239 1256.11 653.729 1269.35 653.729H1330.63C1347.11 653.729 1363.74 654.376 1380.18 653.167C1389.17 652.506 1398.42 653.159 1407.2 650.858C1414.83 648.86 1448.41 631.915 1448.41 631.915V504.99C1448.41 504.99 1429.5 492.904 1424.68 487.013C1419.9 481.174 1411.52 478.399 1406.14 472.912C1399.85 466.497 1393.2 457.959 1389.35 449.889C1386.84 444.612 1383.51 440.977 1381.43 435.476C1380.06 431.853 1377.95 428.595 1376.31 425.118C1374.75 421.812 1375.29 420.033 1372.69 416.758C1369.37 412.564 1368.09 407.678 1366.2 402.781C1362.76 393.825 1343.33 397.397 1335.81 398.289C1326.17 399.433 1315.45 401.848 1306.42 405.527C1301.71 407.446 1295.46 410.981 1290.32 411.142C1276.78 411.565 1262.76 411.908 1249.26 410.955C1239.03 410.233 1229.32 406.737 1219.18 405.589C1205.77 404.071 1199.56 397.242 1195.59 384.937C1192.68 375.936 1186.51 370.433 1181.48 362.662C1176.12 354.367 1171.2 347.126 1160.64 347.126C1156.07 347.126 1152.8 350.495 1147.66 350.495H1125.19C1116.63 350.495 1106.57 352.025 1098.49 348.686C1094.88 347.197 1089.82 346.128 1086.57 344.319C1082.61 342.123 1077.17 341.261 1072.9 339.764C1064.43 336.796 1055.15 335.145 1046.94 331.528C1042.62 329.626 1038.47 325.468 1033.65 324.727C1030.26 324.206 1026.53 324.665 1023.1 324.665C1018.98 324.665 1018.8 323.295 1015.24 321.17C1009.13 317.531 999.686 316.592 992.896 313.933C984.448 310.624 977.669 304.544 968.558 302.702C964.447 301.871 960.128 302.203 955.952 302.203C926.837 302.203 899.359 311.188 870.333 311.188C862.623 311.188 853.51 298.201 848.491 292.781C844.797 288.792 842.55 285.497 840.566 280.427C839.122 276.739 836.653 277.495 833.139 277.495C815.751 277.495 798.245 278.618 781.031 278.618C760.04 278.618 739.375 277.491 722.558 262.832C715.67 256.829 707.295 248.911 702.963 240.932C700.327 236.078 692.644 231.401 688.297 228.142C683.74 224.724 679.245 219.371 673.82 217.472C667.015 215.091 657.274 216.848 650.168 216.848H620.963H597.061C594.451 216.848 592.365 217.111 590.072 215.663C580.555 209.653 575.673 201.719 568.542 193.264C565.318 189.44 561.778 184.759 556.561 184.341C551.903 183.969 547.124 184.279 542.457 184.279H517.62C505.061 184.279 495.374 185.276 484.296 178.788C482.134 177.523 475.577 178.478 475.122 175.294C474.619 171.775 478.263 165.911 479.49 162.691C482.395 155.068 470.755 154.954 468.309 146.701C467.375 143.549 472.621 136.61 473.307 134.208C474.307 130.71 470.17 123.361 466.573 119.764C463.191 116.382 458.106 113.58 456.401 109.032C455.034 105.388 453.599 104.54 449.723 104.54H422.64C415.776 104.54 408.719 100.467 401.984 98.3628C395.276 96.2671 390.6 89.0342 383.824 86.5704C378.483 84.6285 374.285 80.5639 368.722 79.5823C364.426 78.8244 361.493 77.1769 357.614 75.3396C350.35 71.8997 336.451 74.2165 328.783 74.2165H293.836C284.459 74.2165 275.599 76.0703 266.378 76.4627C255.791 76.9131 245.704 78.8361 235.238 80.3311C226.674 81.5543 217.566 81.811 208.894 82.0554L208.091 82.0781C200.712 82.2869 193.689 84.3243 186.25 84.3243C158.43 84.3243 129.669 73.3973 110.927 52.3163C99.5549 39.5253 87.1657 27.6694 74.9192 15.6913C64.7146 5.71034 55.0348 0.0928507 40.8461 0.0928507C31.3497 0.0928507 21.79 -0.420363 12.3894 0.966362Z" fill="#CCCBCB"/>
</svg>
