<svg width="100" height="100" viewBox="0 0 100 100" fill="none" xmlns="http://www.w3.org/2000/svg">
<path d="M19.9922 15.4297C19.9922 15.4297 19.9922 12.6563 20.1875 12.1563C20.3828 11.6641 23.5547 7.39844 23.9531 7C24.3516 6.60156 36.6406 6.50781 49.4297 6.40625C61.7266 6.3125 75.4062 6.70313 75.8984 6.89844C76.3906 7.09375 79.7656 11.4609 79.9609 11.7578C80.1562 12.0547 80.2578 16.0234 80.2578 16.0234L19.9922 15.4297Z" fill="#40727B"/>
<path d="M11.9373 26.2422C11.9373 26.2422 9.36696 25.3203 6.99196 27.0469C4.32008 28.9844 4.78102 31.9922 4.78102 31.9922C4.78102 31.9922 1.7029 31.6563 1.57008 34.3359C1.49977 35.6875 1.43727 40.5547 1.57008 42.2969C1.68727 43.8281 3.50759 44.5703 5.5154 44.5703C7.92165 44.5703 8.85915 43.5 8.92946 42.2969C8.99977 41.0938 8.99977 34.3359 8.99977 33.6016C8.99977 32.4609 8.2654 32.2656 8.2654 32.2656C8.2654 32.2656 7.92946 30.2578 9.73415 29.5234C10.867 29.0625 12.406 29.4531 12.406 29.4531L11.9373 26.2422ZM87.6482 58.3438C87.6482 58.3438 89.7888 58.7578 91.1248 57.9453C92.6638 57.0078 92.3982 55.6016 92.3982 55.6016C92.3982 55.6016 91.2576 55.3984 91.3279 54.4609C91.4138 53.2578 91.3279 45.5 91.3279 45.0313C91.3279 44.5625 91.8591 43.6953 92.9998 43.5625C94.1404 43.4297 96.6795 43.5078 97.617 43.5625C98.7576 43.6328 99.0857 45.5703 99.0857 46.6406C99.0857 47.7109 98.8826 53.5938 98.8201 54.1328C98.7498 54.6641 98.3513 55.6016 97.4841 55.7344C96.5623 55.875 95.742 55.8672 95.742 55.8672C95.742 55.8672 96.0779 59.0078 93.9998 60.6797C91.9295 62.3516 87.7107 61.75 87.7107 61.75C87.7107 61.75 87.7107 58.2109 87.6482 58.3438Z" fill="#858585"/>
<path d="M70.7574 90.3438C70.7574 90.3438 70.7574 93.2891 70.8277 94.7578C70.898 96.2266 71.898 96.8984 73.9058 96.8984C75.9136 96.8984 78.9917 96.7344 79.9917 96.6953C81.8667 96.625 82.7339 95.2266 83.2027 94.2891C83.6714 93.3516 83.6714 89.8047 83.6714 89.8047L70.7574 90.3438ZM16.2183 90.25C16.2183 90.25 15.9761 91.0625 16.5542 92.9922C16.9527 94.3281 18.4996 96.6172 20.5699 96.7344C22.9136 96.8672 24.3824 96.9375 25.7886 96.9375C28.2261 96.9375 29.3355 95.7344 29.3355 94.5938C29.3355 93.4531 29.5386 89.7812 29.5386 89.7812L16.2183 90.25Z" fill="#4D423D"/>
<path d="M15.1641 72.4219L11.2109 62.9219L10.8828 59.4609C10.8828 59.4609 11.1172 26.1328 11.6953 18.8438C11.9453 15.7266 14.0156 15.4219 15.8594 15.1406C18.8672 14.6797 32.5234 13.4063 47.9141 13.2891C63.3047 13.1719 80.3203 14.2188 84.1406 14.9063C87.9609 15.5938 87.6094 18.375 87.9609 20.8047C88.3125 23.2344 88.8906 36.6562 88.8906 43.7188C88.8906 50.7812 89.125 59.2266 89.125 59.2266L86.8125 69.875L54.0625 74.7344L15.1641 72.4219Z" fill="#6BA4AB"/>
<path d="M15.5077 25.9062L84.3671 25.3281C84.3671 25.3281 84.1327 18.0391 78.2342 17.1094C72.3358 16.1797 27.5467 16.2969 20.7186 17.8047C14.8124 19.1016 15.5077 25.9062 15.5077 25.9062Z" fill="#2F2F2F"/>
<path d="M10.875 59.4609L10.7578 79.7813L12.1328 87.5391L86.9375 87.4531L89.0938 78.5781L89.1016 59.2344C89.1016 59.2344 86.5938 63.7578 82.2812 64.6172C77.9688 65.4766 65.1328 67.1172 51.5156 66.8594C37.8984 66.6016 22.3047 67.0312 16.3516 64.4453C10.9922 62.1094 10.875 59.4609 10.875 59.4609Z" fill="#C9C8C6"/>
<path d="M13.0933 72.2031C12.7183 75.0234 14.2964 77.375 21.2808 77.8047C28.2651 78.2344 37.2261 78.1484 52.7339 78.4062C68.2495 78.6641 77.7026 77.5859 81.8589 77.2031C86.5151 76.7734 88.4058 74.5313 88.062 71.8594C87.7183 69.1875 83.4292 68.8984 79.7886 69.2734C75.6558 69.7031 62.3823 70.0469 52.2964 69.9609C42.2105 69.875 25.5776 69.4453 23.2573 69.3594C20.937 69.2734 13.7808 67.0312 13.0933 72.2031Z" fill="#E3E4DE"/>
<path d="M10.7656 79.7891C10.7656 79.7891 10.8438 86.25 10.9375 87.4609C11.1094 89.7031 12.2266 91.25 16.3672 91.4219C20.5078 91.5937 40.4141 91.4219 51.6172 91.5078C62.8203 91.5938 82.4688 91.25 85.0547 91.1641C87.6406 91.0781 88.6016 89.1797 88.7578 87.2031C88.9375 85.0156 89.1016 78.5859 89.1016 78.5859C89.1016 78.5859 84.1875 81.2578 79.625 81.4297C75.0625 81.6016 20.4141 81.6563 18.1797 81.5313C13.4375 81.2656 10.7656 79.7891 10.7656 79.7891Z" fill="#474C4F"/>
<path d="M15.3278 83.1484C14.2965 82.9766 13.2575 82.0312 12.484 82.7187C11.6168 83.4922 12.1403 85.3906 14.3825 85.6484C16.6247 85.9062 22.1403 86.1641 29.7262 86.0781C37.3122 85.9922 65.9215 85.8203 72.2965 85.9062C78.6715 85.9922 82.8122 85.6484 84.1872 85.1328C85.5622 84.6172 87.3747 82.5469 87.0309 81.7734C86.6872 81 84.7028 82.375 83.4137 82.6328C82.1247 82.8906 76.4293 83.2344 70.57 83.1484C64.7106 83.0625 27.57 83.3203 23.4293 83.3203C19.2887 83.3203 16.7965 83.3906 15.3278 83.1484Z" fill="#5E6367"/>
<path d="M31.6877 69.2734C29.1955 69.1094 26.758 70.8359 26.8205 74.0156C26.883 77.2031 29.008 78.8828 31.6252 78.8828C34.2424 78.8828 36.5549 77.4453 36.6174 74.0781C36.6799 70.7109 34.5002 69.4609 31.6877 69.2734Z" fill="white"/>
<path d="M20.82 68.8359C18.6325 68.7109 16.2028 69.5234 15.9528 73.0234C15.7028 76.5234 18.3903 77.6406 20.0153 77.7656C21.6403 77.8906 24.57 77.1406 24.7575 73.6406C24.9294 70.4453 22.9528 68.9609 20.82 68.8359Z" fill="#FF8C00"/>
<path d="M69.5233 69.4609C66.4608 69.6484 64.5936 71.9609 64.8436 74.8906C65.0936 77.8203 67.2186 79.3828 69.9608 79.1953C72.2655 79.0391 74.8905 77.6953 74.828 74.1406C74.7655 70.5859 72.0233 69.3047 69.5233 69.4609Z" fill="white"/>
<path d="M81.2029 68.5859C78.8826 68.6562 76.3044 70.6172 76.6482 73.8281C76.9607 76.7656 79.5232 77.8906 81.5779 77.7656C83.6404 77.6406 85.8826 75.7656 85.7029 72.7734C85.5154 69.7734 83.3279 68.5234 81.2029 68.5859Z" fill="#FF8C00"/>
<path d="M16.3906 28.5937C15.0469 28.7187 14.1953 28.9453 13.8438 30.8594C13.4922 32.7734 13.2812 40.7656 13.0625 45.3672C12.8516 49.9688 12.8516 54.7812 13.0625 56.5469C13.2734 58.3125 14.7578 59.3047 17.5234 59.5156C20.2813 59.7266 33.7969 60.0781 41.7188 60.0781C49.6406 60.0781 82.5469 59.3672 84.5234 59.1563C86.5078 58.9453 86.9297 57.4609 87.0703 55.9688C87.2109 54.4844 87.0703 49.8828 86.7891 43.4453C86.5078 37.0078 85.9375 30.3594 85.7969 29.2969C85.6562 28.2344 84.5234 28.0938 83.3906 28.0938C82.2578 28.0938 58.9063 28.0938 49.4297 28.3047C39.9453 28.5234 17.875 28.4531 16.3906 28.5937Z" fill="#464C52"/>
<path d="M16.2417 34.3203C15.9995 35.5938 15.6792 39.2734 15.6011 43.3047C15.523 47.3359 15.3198 53.7734 15.4605 54.9063C15.6011 56.0391 16.8042 56.5313 18.2886 56.5313C19.773 56.5313 34.2105 56.7422 47.2261 56.8828C57.5542 56.9922 80.6245 56.4609 82.5308 56.2422C83.8277 56.1016 84.2964 55.0391 84.2964 53.8359C84.2964 52.6328 84.0855 45.9844 84.0152 42.5156C83.9448 39.0469 83.3745 34.8047 83.1636 33.25C82.9527 31.6953 81.8198 31.5547 80.6167 31.4844C79.4136 31.4141 61.3745 31.6797 49.062 31.7656C39.2261 31.8359 23.5933 32.1172 19.1323 32.3281C16.6011 32.4609 16.4605 33.1875 16.2417 34.3203Z" fill="#96C8ED"/>
<path d="M19.3594 52.0078L37.6875 51.9375L37.7812 31.9141C37.7812 31.9141 33.7109 31.9375 27.7422 32.0859C23.0547 32.2031 19.1562 32.3438 19.1562 32.3438L19.3594 52.0078ZM40.2656 31.8516L40.2344 52.0078H58.7031L58.7734 31.7031C58.7734 31.7031 54.0234 31.6875 49.6328 31.7422C44.5469 31.8125 40.2656 31.8516 40.2656 31.8516ZM61.6953 31.6641L61.7344 48.1953C61.7344 48.1953 62.6562 47.7188 63.4297 47.5547C64.7734 47.2734 66.5391 47.2734 66.5391 47.2734C66.5391 47.2734 66.6172 43.4531 66.6172 42.3203C66.6172 41.1875 67.4688 40.4844 68.3828 40.4063C69.3047 40.3359 72.2031 40.3359 72.9844 40.4063C73.7656 40.4766 74.2578 41.3984 74.3281 42.1719C74.3984 42.9453 74.6094 47.2656 74.6094 47.2656L79 47.1953L78.9062 31.4922C78.9062 31.4922 73.4531 31.4922 70.1328 31.5312C66.7812 31.5781 61.6953 31.6641 61.6953 31.6641Z" fill="#AFE3FB"/>
</svg>
