<svg width="30" height="27" viewBox="0 0 30 27" fill="none" xmlns="http://www.w3.org/2000/svg">
<path fill-rule="evenodd" clip-rule="evenodd" d="M15.3279 1C14.9105 1 14.5102 1.14167 14.2151 1.39384C13.9199 1.64602 13.7541 1.98804 13.7541 2.34466V6.47727L6.85666 10.3589C6.6682 10.4649 6.52478 10.62 6.44767 10.8012C6.37055 10.9824 6.36386 11.18 6.42858 11.3647L6.43068 11.3683H24.5693V11.3647C24.6342 11.1802 24.6279 10.9827 24.5511 10.8015C24.4744 10.6204 24.3314 10.4651 24.1433 10.3589L16.9017 6.28363V3.69112H18.2048C18.6222 3.69112 19.0226 3.54945 19.3177 3.29728C19.6128 3.0451 19.7787 2.70308 19.7787 2.34646C19.7787 1.98983 19.6128 1.64781 19.3177 1.39564C19.0226 1.14346 18.6222 1.00179 18.2048 1.00179L15.3279 1ZM28.4262 16.2575H28.0149V23.3107H28.4262C28.8436 23.3107 29.2439 23.4523 29.539 23.7045C29.8342 23.9567 30 24.2987 30 24.6553C30 25.012 29.8342 25.354 29.539 25.6062C29.2439 25.8583 28.8436 26 28.4262 26H2.57381C2.15641 26 1.7561 25.8583 1.46096 25.6062C1.16581 25.354 1 25.012 1 24.6553C1 24.2987 1.16581 23.9567 1.46096 23.7045C1.7561 23.4523 2.15641 23.3107 2.57381 23.3107H2.98509V16.2557H2.57381C2.15641 16.2557 1.7561 16.114 1.46096 15.8618C1.16581 15.6096 1 15.2676 1 14.911C1 14.5544 1.16581 14.2124 1.46096 13.9602C1.7561 13.708 2.15641 13.5663 2.57381 13.5663H28.4262C28.8436 13.5663 29.2439 13.708 29.539 13.9602C29.8342 14.2124 30 14.5544 30 14.911C30 15.2676 29.8342 15.6096 29.539 15.8618C29.2439 16.114 28.8436 16.2557 28.4262 16.2557V16.2575ZM24.0069 16.2575H21.3839V23.3107H24.0069V16.2557V16.2575ZM9.27192 16.2575H6.64892V23.3107H9.27192V16.2557V16.2575ZM17.3361 23.3107V19.5277C17.3361 19.085 17.1303 18.6604 16.7639 18.3474C16.3975 18.0344 15.9006 17.8585 15.3825 17.8585C14.8644 17.8585 14.3674 18.0344 14.0011 18.3474C13.6347 18.6604 13.4289 19.085 13.4289 19.5277V23.3107H17.3361Z" fill="#090808"/>
</svg>
