<svg width="28" height="26" viewBox="0 0 28 26" fill="none" xmlns="http://www.w3.org/2000/svg">
<path d="M29 7.16667V22.5833C29 24.0199 28.4293 25.3977 27.4135 26.4135C26.3977 27.4293 25.0199 28 23.5833 28H4.41667C2.98008 28 1.60233 27.4293 0.586505 26.4135C-0.429317 25.3977 -1 24.0199 -1 22.5833V7.16667H29ZM6.08333 18C5.5308 18 5.0009 18.2195 4.61019 18.6102C4.21949 19.0009 4 19.5308 4 20.0833C4 20.6359 4.21949 21.1658 4.61019 21.5565C5.0009 21.9472 5.5308 22.1667 6.08333 22.1667C6.63587 22.1667 7.16577 21.9472 7.55647 21.5565C7.94717 21.1658 8.16667 20.6359 8.16667 20.0833C8.16667 19.5308 7.94717 19.0009 7.55647 18.6102C7.16577 18.2195 6.63587 18 6.08333 18ZM14 18C13.4475 18 12.9176 18.2195 12.5269 18.6102C12.1362 19.0009 11.9167 19.5308 11.9167 20.0833C11.9167 20.6359 12.1362 21.1658 12.5269 21.5565C12.9176 21.9472 13.4475 22.1667 14 22.1667C14.5525 22.1667 15.0824 21.9472 15.4731 21.5565C15.8638 21.1658 16.0833 20.6359 16.0833 20.0833C16.0833 19.5308 15.8638 19.0009 15.4731 18.6102C15.0824 18.2195 14.5525 18 14 18ZM6.08333 10.5C5.5308 10.5 5.0009 10.7195 4.61019 11.1102C4.21949 11.5009 4 12.0308 4 12.5833C4 13.1359 4.21949 13.6658 4.61019 14.0565C5.0009 14.4472 5.5308 14.6667 6.08333 14.6667C6.63587 14.6667 7.16577 14.4472 7.55647 14.0565C7.94717 13.6658 8.16667 13.1359 8.16667 12.5833C8.16667 12.0308 7.94717 11.5009 7.55647 11.1102C7.16577 10.7195 6.63587 10.5 6.08333 10.5ZM14 10.5C13.4475 10.5 12.9176 10.7195 12.5269 11.1102C12.1362 11.5009 11.9167 12.0308 11.9167 12.5833C11.9167 13.1359 12.1362 13.6658 12.5269 14.0565C12.9176 14.4472 13.4475 14.6667 14 14.6667C14.5525 14.6667 15.0824 14.4472 15.4731 14.0565C15.8638 13.6658 16.0833 13.1359 16.0833 12.5833C16.0833 12.0308 15.8638 11.5009 15.4731 11.1102C15.0824 10.7195 14.5525 10.5 14 10.5ZM21.9167 10.5C21.3641 10.5 20.8342 10.7195 20.4435 11.1102C20.0528 11.5009 19.8333 12.0308 19.8333 12.5833C19.8333 13.1359 20.0528 13.6658 20.4435 14.0565C20.8342 14.4472 21.3641 14.6667 21.9167 14.6667C22.4692 14.6667 22.9991 14.4472 23.3898 14.0565C23.7805 13.6658 24 13.1359 24 12.5833C24 12.0308 23.7805 11.5009 23.3898 11.1102C22.9991 10.7195 22.4692 10.5 21.9167 10.5ZM23.5833 -2C25.0199 -2 26.3977 -1.42932 27.4135 -0.413495C28.4293 0.602327 29 1.98008 29 3.41667V4.66667H-1V3.41667C-1 1.98008 -0.429317 0.602327 0.586505 -0.413495C1.60233 -1.42932 2.98008 -2 4.41667 -2H23.5833Z" fill="#090808"/>
</svg>
