<svg width="30" height="40" viewBox="0 0 30 40" fill="none" xmlns="http://www.w3.org/2000/svg">
<path d="M13.4583 39.2C2.10667 22.7367 0 21.0483 0 15C0 6.715 6.715 0 15 0C23.285 0 30 6.715 30 15C30 21.0483 27.8933 22.7333 16.5417 39.1933C16.3693 39.4416 16.1395 39.6446 15.8718 39.785C15.6041 39.9253 15.3065 39.999 15.0042 39.9996C14.702 40.0003 14.404 39.9279 14.1358 39.7887C13.8675 39.6495 13.6368 39.4475 13.4633 39.2L13.46 39.1933L13.4583 39.2ZM15 21.25C16.6576 21.25 18.2473 20.5915 19.4194 19.4194C20.5915 18.2473 21.25 16.6576 21.25 15C21.25 13.3424 20.5915 11.7527 19.4194 10.5806C18.2473 9.40848 16.6576 8.75 15 8.75C13.3424 8.75 11.7527 9.40848 10.5806 10.5806C9.40848 11.7527 8.75 13.3424 8.75 15C8.75 16.6576 9.40848 18.2473 10.5806 19.4194C11.7527 20.5915 13.3424 21.25 15 21.25Z" fill="#F8FBFF"/>
</svg>
