<svg width="100" height="90" viewBox="0 0 100 90" fill="none" xmlns="http://www.w3.org/2000/svg">
<path d="M50 90C48.5 90 47.0633 89.73 45.69 89.19C44.3167 88.65 43.0867 87.8366 42 86.75L8.5 53.125C7.33333 51.9583 6.27 50.6867 5.31 49.31C4.35 47.9333 3.54 46.4967 2.88 45H49.38C50.7967 45 51.985 45.48 52.945 46.44C53.905 47.4 54.3833 48.5867 54.38 50C54.38 51.4167 53.9 52.605 52.94 53.565C51.98 54.525 50.7933 55.0033 49.38 55C48.2133 55 47.1717 54.6883 46.255 54.065C45.3383 53.4417 44.755 52.545 44.505 51.375L34.88 54C35.7967 57.25 37.5883 59.8966 40.255 61.94C42.9217 63.9833 45.9633 65.0033 49.38 65C53.5467 65 57.0883 63.5416 60.005 60.625C62.9217 57.7083 64.3783 54.1667 64.375 50C64.375 49.0833 64.2917 48.2283 64.125 47.435C63.9583 46.6417 63.75 45.83 63.5 45H69.375C73.5417 45 77.0833 43.5417 80 40.625C82.9167 37.7083 84.375 34.1667 84.375 30C84.375 25.8333 82.9167 22.2917 80 19.375C77.0833 16.4583 73.5417 15 69.375 15C65.9583 15 62.9167 16.0217 60.25 18.065C57.5833 20.1083 55.7917 22.7533 54.875 26L64.5 28.625C64.75 27.4583 65.3333 26.5633 66.25 25.94C67.1667 25.3167 68.2083 25.0033 69.375 25C70.7917 25 71.98 25.48 72.94 26.44C73.9 27.4 74.3783 28.5867 74.375 30C74.375 31.4167 73.895 32.605 72.935 33.565C71.975 34.525 70.7883 35.0033 69.375 35H0.25C0.166666 34.3333 0.105 33.7283 0.0650001 33.185C0.0250001 32.6417 0.00333333 32.04 0 31.38C0 22.7933 2.79167 15.4167 8.375 9.25C13.9583 3.08333 20.9167 0 29.25 0C33.25 0 37.0217 0.791666 40.565 2.375C44.1083 3.95833 47.2533 6.16667 50 9C52.6667 6.16667 55.7717 3.95833 59.315 2.375C62.8583 0.791666 66.6283 0 70.625 0C78.9583 0 85.9383 3.08333 91.565 9.25C97.1917 15.4167 100.003 22.75 100 31.25C100 35.3333 99.2917 39.25 97.875 43C96.4583 46.75 94.3333 50.0833 91.5 53L57.875 86.75C56.7917 87.8333 55.5833 88.6466 54.25 89.19C52.9167 89.7333 51.5 90.0033 50 90Z" fill="#B35F4E"/>
</svg>
