<svg width="100" height="100" viewBox="0 0 100 100" fill="none" xmlns="http://www.w3.org/2000/svg">
<path d="M60.7659 9.32031C69.0238 1.0625 82.4222 1.0625 90.68 9.32031C98.9378 17.5781 98.9378 30.9766 90.68 39.2344C82.4222 47.4922 66.305 50.2188 58.0472 41.9531C49.7894 33.6875 52.5003 17.5781 60.7659 9.32031Z" fill="#9E9E9E"/>
<path d="M93.3047 12.5312C93.2891 19.4219 90.6562 26.3047 85.3984 31.5547C77.0703 39.8828 64.6484 41.625 54.6016 36.7891C55.4062 38.7031 56.5391 40.4609 58.0391 41.9609C66.2969 50.2188 82.4141 47.5 90.6719 39.2422C97.9375 31.9766 98.8125 20.75 93.3047 12.5312Z" fill="#757575"/>
<path d="M65.6406 52.3906C67.1406 50.8906 64.3203 45.6328 59.3437 40.6563C54.3672 35.6797 49.1094 32.8594 47.6094 34.3594C46.8125 35.1563 4.07812 82.3203 3.64843 82.75C2.14843 84.25 3.97656 88.5156 7.72656 92.2656C11.4766 96.0156 15.7422 97.8438 17.2422 96.3438C17.6797 95.9219 64.8437 53.1875 65.6406 52.3906Z" fill="#616161"/>
<path d="M9.66406 90.3359L58.0469 41.9531L65.0156 50L15.9609 94.2891C12.1797 94.2891 9.66406 90.3359 9.66406 90.3359Z" fill="#424242"/>
<path d="M33.9214 65.1016C31.773 62.8906 32.0933 61.3359 33.0777 60.375L42.0855 51.6406C42.3208 51.412 42.5988 51.2321 42.9037 51.1111C43.2087 50.9901 43.5344 50.9304 43.8625 50.9355C44.1905 50.9406 44.5142 51.0103 44.8153 51.1407C45.1163 51.2711 45.3886 51.4595 45.6167 51.6953L47.6558 53.7969C47.8844 54.0322 48.0644 54.3102 48.1854 54.6151C48.3063 54.92 48.366 55.2458 48.3609 55.5738C48.3559 55.9019 48.2861 56.2256 48.1557 56.5267C48.0254 56.8277 47.8369 57.1 47.6011 57.3281L38.5933 66.0625C37.6089 67.0156 36.0699 67.3125 33.9214 65.1016Z" fill="#090808"/>
<path d="M44.4531 58.8906C46.7011 58.8906 48.5234 57.0683 48.5234 54.8203C48.5234 52.5723 46.7011 50.75 44.4531 50.75C42.2052 50.75 40.3828 52.5723 40.3828 54.8203C40.3828 57.0683 42.2052 58.8906 44.4531 58.8906Z" fill="#9E9E9E"/>
<path d="M87.1406 41.2422C88.0078 41.8125 88.211 41.9062 89.1797 41.5234C90.1406 41.1406 91.6406 39.5312 91.8516 39.0156C92.1719 38.2109 91.9766 38.0156 91.2344 37.5703C88.5625 35.9609 83.4766 32.3125 75.586 24.4219C67.6953 16.5312 64.0469 11.4453 62.4375 8.77344C61.9922 8.03125 61.6172 7.99219 60.6641 8.67187C60.0781 9.09375 59.2578 9.94531 58.7188 10.8984C58.211 11.8047 58.1875 11.9922 58.7578 12.8594C60.9141 16.1328 64.8203 21.1328 71.8438 28.1562C78.8672 35.1875 83.8672 39.0859 87.1406 41.2422Z" fill="#94D1E0"/>
<path d="M73.1566 46.5234C71.9925 45.8594 66.8519 41.625 62.2659 37.0313C57.9144 32.6641 54.0941 27.9453 53.4691 26.8359C53.0159 26.0391 51.8675 26.0469 51.4222 26.8437L48.3909 32.2344C47.7503 33.3828 47.6956 34.7734 48.2738 35.9531C49.2581 37.9531 50.8441 40.3516 55.2425 44.75C59.6409 49.1484 62.0394 50.7344 64.0394 51.7187C65.2191 52.2969 66.6097 52.2422 67.7581 51.6016L73.1488 48.5703C73.9456 48.125 73.9534 46.9766 73.1566 46.5234Z" fill="#82AEC0"/>
<path d="M48.6795 35.3594L51.9374 30.5313C52.3983 29.8516 53.3827 29.8047 53.9061 30.4375L57.5077 34.8125C57.8983 35.2891 57.8749 35.9844 57.453 36.4375L53.3202 40.8281C52.8202 41.3594 51.9764 41.3438 51.4999 40.7969C50.7108 39.8906 49.5467 38.4062 48.6014 36.6016C48.3905 36.2109 48.4295 35.7266 48.6795 35.3594Z" fill="#94D1E0"/>
</svg>
