<svg width="100" height="100" viewBox="0 0 100 100" fill="none" xmlns="http://www.w3.org/2000/svg">
<g clip-path="url(#clip0_46_2481)">
<path d="M74.8012 0H25.1934C23.0887 0.000827902 21.0705 0.837149 19.5822 2.3252C18.0938 3.81325 17.2571 5.83131 17.2559 7.93594V92.0688C17.2579 94.1731 18.0949 96.1907 19.5831 97.6786C21.0712 99.1665 23.089 100.003 25.1934 100.005H74.8012C76.9059 100.003 78.9238 99.1661 80.4127 97.6784C81.9015 96.1908 82.7396 94.1734 82.7434 92.0688V7.94844C82.7409 5.84338 81.9031 3.82534 80.414 2.33742C78.9249 0.849498 76.9062 0.0133265 74.8012 0.0125" fill="#405866"/>
<path d="M69.6543 6.05625H30.3418C28.6745 6.05624 27.0752 6.71752 25.8947 7.89503C24.7143 9.07255 24.0491 10.6702 24.0449 12.3375V79.0047C24.0482 80.6723 24.7132 82.2704 25.8938 83.4481C27.0745 84.6258 28.6742 85.2868 30.3418 85.2859H69.6543C73.123 85.2859 75.9355 82.4578 75.9355 79.0047V12.3313C75.9355 8.8625 73.1152 6.05 69.6543 6.05" fill="#85CFEA"/>
<path d="M48.9062 6.05625H30.3516C28.6842 6.05624 27.085 6.71752 25.9045 7.89503C24.7241 9.07255 24.0588 10.6702 24.0547 12.3375V79.0047C24.058 80.6723 24.723 82.2704 25.9036 83.4481C27.0842 84.6258 28.684 85.2868 30.3516 85.2859H69.6641C70.9344 85.2859 72.1078 84.8969 73.0953 84.2562C56.3812 62.4844 47.4344 33.2172 48.9109 6.05312" fill="#28A6DE"/>
<path d="M55.1558 92.7969C55.1558 95.6359 52.8496 97.95 50.0042 97.95C47.1589 97.95 44.8527 95.6375 44.8527 92.7969C44.8527 89.9563 47.1589 87.6438 50.0042 87.6438C52.8496 87.6438 55.1558 89.9563 55.1558 92.7969ZM35.3042 92.7969C35.3148 93.2981 35.2252 93.7965 35.0407 94.2627C34.8562 94.7289 34.5805 95.1536 34.2299 95.5119C33.8792 95.8702 33.4605 96.155 32.9984 96.3495C32.5363 96.544 32.04 96.6444 31.5387 96.6447C31.0373 96.645 30.5409 96.5453 30.0786 96.3513C29.6162 96.1574 29.1972 95.8731 28.8461 95.5153C28.495 95.1574 28.2188 94.733 28.0337 94.267C27.8486 93.8011 27.7584 93.3028 27.7683 92.8016C27.7878 91.8155 28.193 90.8764 28.897 90.1857C29.601 89.495 30.5477 89.1078 31.534 89.1072C32.5202 89.1066 33.4674 89.4926 34.1723 90.1824C34.8772 90.8722 35.2836 91.8108 35.3042 92.7969ZM64.7027 92.7969C64.6882 93.3007 64.7749 93.8024 64.9577 94.2721C65.1405 94.7418 65.4156 95.1701 65.7669 95.5317C66.1181 95.8932 66.5383 96.1805 67.0026 96.3768C67.4669 96.573 67.9658 96.6741 68.4699 96.6741C68.9739 96.6741 69.4729 96.573 69.9371 96.3768C70.4014 96.1805 70.8216 95.8932 71.1729 95.5317C71.5241 95.1701 71.7993 94.7418 71.9821 94.2721C72.1649 93.8024 72.2516 93.3007 72.2371 92.7969C72.2371 91.7978 71.8402 90.8396 71.1337 90.1331C70.4272 89.4266 69.469 89.0297 68.4699 89.0297C67.4708 89.0297 66.5126 89.4266 65.8061 90.1331C65.0996 90.8396 64.7027 91.7978 64.7027 92.7969Z" fill="#CBD5DC"/>
</g>
<defs>
<clipPath id="clip0_46_2481">
<rect width="100" height="100" fill="white"/>
</clipPath>
</defs>
</svg>
