<svg width="100" height="87" viewBox="0 0 100 87" fill="none" xmlns="http://www.w3.org/2000/svg">
<path fill-rule="evenodd" clip-rule="evenodd" d="M47.5 5.23289e-08C52.4152 0.000363929 57.1951 1.54658 61.1099 4.40252C65.0246 7.25845 67.859 11.2671 69.18 15.8163L69.44 16.8012L78.79 14.5575C79.4734 14.3941 80.185 14.3712 80.8783 14.4904C81.5715 14.6095 82.2308 14.8681 82.8128 15.2491C83.3948 15.6301 83.8865 16.125 84.2557 16.7013C84.6249 17.2776 84.8632 17.9223 84.955 18.5933L85 19.2178V27.9139C87.8188 30.5109 90.1289 33.5736 91.82 36.9559L92.51 38.4357H95C96.2247 38.4358 97.4067 38.8679 98.3219 39.6498C99.237 40.4318 99.8217 41.5093 99.965 42.678L100 43.2401V57.6535C100 58.4443 99.7971 59.2229 99.409 59.9202C99.0208 60.6175 98.4596 61.2119 97.775 61.6508L97.235 61.9487L91.395 64.7593C89.0042 69.2038 85.5411 73.034 81.295 75.9297L80 76.7656V81.6758C79.9998 82.8526 79.5502 83.9884 78.7364 84.8677C77.9226 85.7471 76.8013 86.3089 75.585 86.4466L75 86.4803H60C58.7753 86.4801 57.5933 86.0481 56.6781 85.2661C55.763 84.4841 55.1783 83.4066 55.035 82.2379L55 81.6758H50C49.9998 82.8526 49.5502 83.9884 48.7364 84.8677C47.9226 85.7471 46.8013 86.3089 45.585 86.4466L45 86.4803H30C28.7753 86.4801 27.5933 86.0481 26.6781 85.2661C25.763 84.4841 25.1783 83.4066 25.035 82.2379L25 81.6758V76.7656C21.3879 74.5467 18.2678 71.6637 15.8188 68.2824C13.3699 64.9011 11.6405 61.0881 10.73 57.0626C7.78164 56.2194 5.17407 54.5261 3.26027 52.2119C1.34646 49.8978 0.218824 47.0744 0.0300002 44.1241L0 43.2401V40.8379C0.00141354 39.6133 0.489396 38.4355 1.36424 37.5451C2.23909 36.6546 3.43477 36.1188 4.70697 36.047C5.97918 35.9753 7.2319 36.373 8.20916 37.159C9.18643 37.9449 9.81448 39.0598 9.965 40.2758L10 40.8379V43.2401C10 43.9512 10.16 44.6286 10.45 45.234C11.2132 40.9086 12.9157 36.7861 15.4466 33.1348C17.9776 29.4834 21.2804 26.3851 25.14 24.0415C24.7852 21.017 25.0991 17.9547 26.0609 15.0547C27.0228 12.1548 28.611 9.48276 30.7217 7.21334C32.8324 4.94391 35.418 3.12828 38.3093 1.88525C41.2006 0.642215 44.3325 -0.000211697 47.5 5.23289e-08ZM70 38.4357C68.6739 38.4357 67.4021 38.9419 66.4645 39.8429C65.5268 40.7439 65 41.9659 65 43.2401C65 44.5144 65.5268 45.7364 66.4645 46.6374C67.4021 47.5384 68.6739 48.0446 70 48.0446C71.3261 48.0446 72.5979 47.5384 73.5355 46.6374C74.4732 45.7364 75 44.5144 75 43.2401C75 41.9659 74.4732 40.7439 73.5355 39.8429C72.5979 38.9419 71.3261 38.4357 70 38.4357ZM47.5 9.60892C44.4715 9.60891 41.5459 10.6654 39.267 12.5821C36.9882 14.4988 35.511 17.1453 35.11 20.0298C37.533 19.4891 40.0125 19.2167 42.5 19.2178H59.385L59.735 19.1362C59.1421 16.4407 57.6028 14.023 55.3752 12.2884C53.1476 10.5538 50.3672 9.60777 47.5 9.60892Z" fill="#B35F4E"/>
</svg>
