<svg width="100" height="100" viewBox="0 0 100 100" fill="none" xmlns="http://www.w3.org/2000/svg">
<path d="M29.8503 59.7806C34.4836 59.7806 50.4892 71.85 50.4808 86.7278C50.4892 101.611 9.2225 101.611 9.21973 86.725C9.2225 71.8472 25.2169 59.7806 29.8503 59.7806Z" fill="#99AAB5"/>
<path d="M23.7251 69.95C48.2779 94.5055 71.8834 84.2917 79.3723 76.8083C86.8584 69.3194 78.9334 49.2639 61.6751 32.0056C44.4112 14.7444 24.3529 6.81944 16.8668 14.3056C9.38064 21.7917 -0.830469 45.3972 23.7251 69.95Z" fill="#CCD6DD"/>
<path d="M34.5635 59.1056C51.8246 76.3667 71.8802 84.2889 79.3691 76.8056C86.8552 69.3167 78.9302 49.2611 61.6718 32.0028C44.4107 14.7444 24.3524 6.81944 16.8663 14.3056C9.38017 21.7917 17.3052 41.85 34.5635 59.1056Z" fill="#66757F"/>
<path d="M61.6724 32.0028C62.2632 32.5953 62.595 33.398 62.595 34.2347C62.595 35.0715 62.2632 35.8741 61.6724 36.4667L41.5808 56.5528C41.2877 56.8459 40.9397 57.0784 40.5567 57.237C40.1738 57.3956 39.7633 57.4773 39.3488 57.4773C38.9343 57.4773 38.5239 57.3956 38.1409 57.237C37.758 57.0784 37.41 56.8459 37.1169 56.5528C36.8238 56.2597 36.5913 55.9117 36.4327 55.5288C36.274 55.1458 36.1924 54.7353 36.1924 54.3208C36.1924 53.9063 36.274 53.4959 36.4327 53.1129C36.5913 52.73 36.8238 52.382 37.1169 52.0889L57.2058 32.0028C57.4991 31.7095 57.8472 31.4768 58.2304 31.3181C58.6136 31.1594 59.0243 31.0777 59.4391 31.0777C59.8539 31.0777 60.2646 31.1594 60.6478 31.3181C61.031 31.4768 61.3792 31.7095 61.6724 32.0028Z" fill="#CCD6DD"/>
<path d="M66.1363 27.5417C66.7382 28.1249 67.218 28.8221 67.5477 29.5926C67.8775 30.3632 68.0506 31.1916 68.057 32.0297C68.0634 32.8678 67.9029 33.6988 67.585 34.4743C67.267 35.2497 66.7979 35.9542 66.205 36.5465C65.6121 37.1389 64.9072 37.6073 64.1314 37.9246C63.3557 38.2418 62.5245 38.4015 61.6864 38.3943C60.8483 38.3871 60.0201 38.2133 59.2498 37.8828C58.4796 37.5523 57.7829 37.0719 57.2002 36.4694C56.0478 35.278 55.4099 33.6813 55.4241 32.0238C55.4382 30.3663 56.1034 28.7808 57.276 27.6092C58.4487 26.4377 60.0348 25.774 61.6923 25.7614C63.3499 25.7488 64.9459 26.3881 66.1363 27.5417Z" fill="#CCD6DD"/>
<path d="M78.5747 36.3278L78.433 36.325C77.6975 36.2883 77.0066 35.9611 76.5123 35.4152C76.0179 34.8693 75.7606 34.1494 75.7969 33.4139C75.7997 33.3694 75.9719 27.4222 71.408 22.8583C66.858 18.3111 60.9302 18.4722 60.8497 18.4694C60.4806 18.4962 60.11 18.4489 59.7595 18.3305C59.4089 18.212 59.0856 18.0247 58.8085 17.7796C58.5313 17.5344 58.306 17.2364 58.1456 16.9029C57.9852 16.5695 57.8931 16.2074 57.8746 15.8379C57.8561 15.4683 57.9116 15.0988 58.0378 14.751C58.1641 14.4032 58.3586 14.0842 58.6098 13.8126C58.8611 13.541 59.1641 13.3223 59.501 13.1694C59.8379 13.0165 60.202 12.9325 60.5719 12.9222C60.9108 12.8889 68.983 12.5806 75.333 18.9306C81.6858 25.2861 81.3608 33.35 81.3441 33.6917C81.3078 34.4021 81.0004 35.0716 80.4851 35.562C79.9698 36.0525 79.286 36.3266 78.5747 36.3278Z" fill="#FFAC33"/>
<path d="M88.4609 34.7833C88.0172 34.7831 87.5801 34.6765 87.1861 34.4726C86.792 34.2687 86.4526 33.9734 86.1961 33.6114C85.9396 33.2494 85.7736 32.8312 85.7119 32.3919C85.6502 31.9525 85.6946 31.5048 85.8415 31.0861C85.9359 30.7889 88.322 23.0972 79.7442 14.5222C71.0609 5.83611 62.7276 7.81667 62.3776 7.90556C61.6665 8.08588 60.9129 7.97847 60.2805 7.60662C59.6481 7.23478 59.1879 6.62852 58.9998 5.91945C58.8112 5.21299 58.9102 4.46058 59.2752 3.82697C59.6401 3.19337 60.2413 2.7302 60.947 2.53889C61.4192 2.41111 72.6276 -0.452777 83.672 10.5972C94.8276 21.7472 91.2442 32.475 91.0831 32.9278C90.6831 34.0667 89.6081 34.7833 88.4609 34.7833Z" fill="#FFAC33"/>
<path d="M30.3169 90.3361C22.2614 90.3361 14.9197 88.5083 9.30028 85.5111C9.27806 85.9167 9.21973 86.3167 9.21973 86.7278C9.2225 101.614 50.4892 101.614 50.4808 86.7306C50.4808 86.4806 50.4392 86.2389 50.4308 85.9917C44.9392 88.7028 37.9419 90.3361 30.3169 90.3361Z" fill="#66757F"/>
</svg>
