<svg width="100" height="100" viewBox="0 0 100 100" fill="none" xmlns="http://www.w3.org/2000/svg">
<path d="M41.8608 95.8242C47.4076 101.414 52.5581 101.37 58.1068 95.8242L64.8858 89.0873C65.5902 88.4281 66.2063 88.1632 67.1305 88.1632H76.6406C84.5204 88.1632 88.1738 84.5535 88.1738 76.6315V67.1224C88.1738 66.1984 88.4386 65.5824 89.0979 64.878L95.7906 58.098C101.426 52.5518 101.381 47.4019 95.7906 41.8558L89.0979 35.0757C88.4386 34.4184 88.1738 33.7573 88.1738 32.8764V23.3242C88.1738 15.4886 84.5636 11.7924 76.6406 11.7924H67.1305C66.2063 11.7924 65.5902 11.5708 64.8858 10.9097L58.1049 4.17653C52.5581 -1.41469 47.4076 -1.36962 41.8608 4.17653L35.0799 10.9115C34.4225 11.5708 33.7613 11.7905 32.8803 11.7905H23.327C15.4472 11.7905 11.7938 15.4003 11.7938 23.3223V32.8764C11.7938 33.7573 11.5722 34.4165 10.911 35.0776L4.17703 41.8577C-1.41486 47.4019 -1.36978 52.5518 4.17703 58.0998L10.9129 64.878C11.5722 65.5824 11.7919 66.1984 11.7919 67.1224V76.6315C11.7919 84.5103 15.4472 88.1632 23.3251 88.1632H32.8803C33.7613 88.1632 34.4206 88.4281 35.0818 89.0873L41.8608 95.8242ZM42.5652 72.1408C41.2015 72.1408 40.3205 71.7013 39.6594 70.952L24.9555 54.6215C24.3385 53.9306 23.9946 53.0385 23.9882 52.1123C23.9882 50.0426 25.5716 48.5025 27.8181 48.5025C29.0053 48.5025 29.8862 48.8988 30.6789 49.7346L42.3435 62.6337L65.0173 30.7184C65.8982 29.4413 66.7792 28.9154 68.3195 28.9154C70.4758 28.9154 72.018 30.4987 72.018 32.5684C72.018 33.3159 71.7099 34.1967 71.2253 34.901L45.5593 70.7773C44.8981 71.6131 43.8876 72.1408 42.5652 72.1408Z" fill="#B35F4E"/>
</svg>
