<svg width="158" height="94" viewBox="0 0 158 94" fill="none" xmlns="http://www.w3.org/2000/svg">
<path d="M-4.45056 3.23243C-4.41661 2.425 -4.14486 1.6806 -3.8283 0.93425C-5.98992 -1.42945 -9.01236 -3.66531 -7.85813 -7.16308C-7.27294 -8.93643 -3.33342 -10.3953 -1.74199 -11.0899C0.112044 -11.8991 2.44158 -13.4185 4.49647 -13.7132C8.92721 -14.3488 13.9423 -13.7295 18.4238 -13.7295H73.1195C79.3282 -13.7295 85.5011 -13.1429 91.6777 -13.1429C98.1604 -13.1429 104.428 -10.9656 110.865 -10.21C114.053 -9.83589 117.271 -10.0177 120.161 -8.64582C121.653 -7.93753 122.96 -7.59124 124.53 -7.14678C125.857 -6.77124 129.745 -7.17726 130.611 -5.90845C131.586 -4.48079 130.973 -1.51817 129.44 -0.710693C128.448 -0.187843 127.586 0.28928 126.575 0.788346C126.143 1.00139 123.042 3.36681 123.761 3.55831C124.845 3.84706 124.197 6.785 124.058 7.61549C123.802 9.14741 123.439 10.4711 121.524 10.8417C118.511 11.4249 115.449 8.86548 112.647 10.2551C110.981 11.0816 107.886 10.4288 106.601 11.4934C105.645 12.2858 104.05 12.08 102.879 12.08C101.488 12.08 99.6151 12.0469 98.6151 13.1228C98.0553 13.7251 94.4832 16.0325 95.0503 16.7727C96.6374 18.8446 102.512 16.3891 102.512 20.4388C102.512 21.4013 102.801 22.7831 102.372 23.6487C101.54 25.3302 100.214 27.0387 98.4229 27.9177C96.447 28.8874 96.1218 28.7103 97.3394 30.9809C99.5315 35.0689 101.956 31.7069 105.36 32.6592C106.007 32.8401 106.411 33.4902 107.108 33.4902C107.997 33.4902 108.872 33.5056 109.746 33.3273C110.88 33.0962 111.977 32.5696 112.857 31.8608C113.052 31.704 114.034 30.2805 114.133 31.0624C114.403 33.2064 114.15 35.5202 114.15 37.6777C114.15 38.9367 115.623 38.5371 116.352 37.8896C117.799 36.6046 118.803 35.7848 119.602 33.979C120.353 32.2831 120.671 30.5849 121.559 28.9279C122.304 27.5385 126.516 28.211 128.147 28.211C129.393 28.211 129.877 28.3803 129.877 27.1845C129.877 25.9551 129.813 24.7123 129.895 23.4858C130.041 21.3033 131.118 19.9223 132.394 18.2228C133.08 17.3082 133.122 16.3837 133.652 15.4692C134.815 13.463 137.119 13.8398 139.209 13.8398C141.24 13.8398 143.533 13.5731 145.535 13.9049C151.111 14.8293 144.608 18.1157 145.797 20.4551C146.794 22.419 146.548 24.2646 146.548 26.435C146.548 27.6262 146.68 28.8982 146.531 30.0848C146.45 30.7235 145.803 31.1043 145.639 31.7142C145.216 33.2928 147.688 33.5303 148.68 33.8324C151.89 34.8096 154.814 36.9062 157.243 39.0627C159.519 41.0845 156.175 45.1037 153.643 45.2218C152.067 45.2953 150.469 45.2218 148.89 45.2218C147.949 45.2218 146.518 44.5712 145.709 45.1241C144.166 46.1792 143.473 47.6278 142.11 48.7576C141.028 49.6544 139.82 50.4185 138.685 51.2506C137.1 52.4116 135.938 54.0176 134.316 55.1937C133.198 56.0042 131.557 56.3263 130.122 56.3669C128.716 56.4066 126.601 56.7141 125.299 56.0736C123.399 55.1386 123.404 52.9249 120.825 52.8474C118.348 52.7728 115.408 52.8252 115.408 55.6336C115.408 56.9468 114.603 56.9477 113.958 58.0125C113.019 59.5612 112.674 60.5122 112.909 62.3793C113.03 63.334 113.957 63.5846 114.604 64.1879C115.346 64.8795 115.761 65.788 116.509 66.4854C118.022 67.8963 115.501 67.4958 114.43 67.5119C111.921 67.5496 109.29 68.6071 106.916 69.3368C105.666 69.7209 104.097 70.2812 103.036 71.0314C102.561 71.3678 102.826 72.6763 102.826 73.1496C102.826 77.8537 106.296 75.069 109.31 74.4205C109.926 74.2878 110.254 74.6013 110.568 75.0234C111.393 76.1355 112.731 76.711 114.115 76.9949C115.641 77.3079 118.02 77.5561 119.393 76.7179C122.182 75.0138 125.213 71.9112 128.707 71.9112C129.668 71.9112 130.466 72.4313 131.066 71.5528C132.401 69.5963 133.27 67.8052 136.028 67.8052C137.592 67.8052 139.13 67.8334 140.677 67.5771C141.722 67.4038 142.864 67.4883 143.927 67.5119C146.001 67.5579 145.35 69.3498 144.818 70.7381C144.019 72.8235 143.525 73.8462 141.218 73.9806C139.364 74.0886 140.412 77.7647 141.376 78.0214C142.157 78.2297 144.346 74.9435 144.346 77.3208C144.346 78.0613 144.441 79.0509 143.473 79.3413C142.544 79.6197 141.947 79.3614 141.026 80.0582C140.178 80.7002 139.5 81.5544 138.685 82.2416C137.427 83.3013 136.443 85.8466 134.456 85.9892C133.759 86.0391 127.465 85.6771 127.378 86.201C126.934 88.893 129.579 88.9489 131.939 89.3457C134.534 89.782 137.036 90.0541 139.453 91.1217C141.474 92.0143 141.695 94.768 140.467 96.4173C139.15 98.1853 136.64 98.0061 134.595 98.9591C132.229 100.062 129.531 100.509 126.854 100.67C123.528 100.87 120.1 101.24 116.771 101.24C109.086 101.24 101.614 102.413 93.9494 102.413C88.0201 102.413 82.1541 103 76.23 103H61.1669C56.0059 103 50.8879 102.859 45.7367 102.69C38.4738 102.453 31.1823 101.069 24.0681 99.9368C21.7601 99.5693 19.9176 98.8939 17.5326 98.8939H10.7C6.83625 98.8939 4.87536 98.2318 3.18587 95.0812C1.65028 92.2175 -0.535197 89.3496 -2.19633 86.4454C-4.7294 82.0168 -6.13533 78.0358 -6.66985 73.0518C-7.07461 69.2777 -8.57754 65.6082 -8.80176 61.7927C-8.96281 59.0521 -8.83671 56.2771 -8.83671 53.5317C-8.83671 48.5509 -9.39291 43.1816 -8.45227 38.248C-7.64751 34.0271 -6.83247 29.7994 -6.16308 25.5551C-5.9644 24.2953 -6.13898 23.029 -5.97086 21.7749C-5.79539 20.466 -5.37672 19.3094 -5.37672 17.9621C-5.37672 15.7469 -5.06218 13.5535 -5.06218 11.3305C-5.06218 8.5933 -4.56509 5.95549 -4.45056 3.23243Z" fill="#964A3B"/>
</svg>
